<?xml version="1.0" encoding="UTF-8"?>
<svg version="1.1" xmlns="http://www.w3.org/2000/svg" width="512" height="512">
<path d="M0 0 C12.6182889 8.07570489 21.25251242 19.35151357 24.6875 34.125 C26.40213829 51.52744066 23.08891521 65.2370644 12.13671875 79.0859375 C5.06302043 86.84418727 -5.12199611 92.69769312 -15.3125 95.125 C-16.26125 95.351875 -17.21 95.57875 -18.1875 95.8125 C-33.59836564 97.35358656 -48.46525116 94.49984059 -61.03515625 85.0859375 C-68.38232164 78.81369676 -73.86162743 71.94530606 -77.41064453 62.94702148 C-77.76772491 62.04459213 -78.1248053 61.14216278 -78.4927063 60.21238708 C-78.76323822 59.52354935 -79.03377014 58.83471161 -79.3125 58.125 C-88.65779402 58.07848816 -98.00304767 58.04303556 -107.34843254 58.02137566 C-111.68871041 58.01097563 -116.0289086 57.99688616 -120.36914062 57.97412109 C-124.56424865 57.95225702 -128.75928043 57.940403 -132.95444107 57.93524551 C-134.54827193 57.93157396 -136.14209901 57.92440489 -137.73589706 57.91353989 C-151.91678715 57.82078617 -162.10969087 58.14388842 -172.625 68.375 C-175.86947976 73.66230035 -177.03091405 79.49197573 -178.140625 85.54296875 C-180.67461457 99.17437047 -184.22661333 110.85868135 -195.3125 120.125 C-193.58755303 123.98276317 -191.18010643 126.53541855 -188.26171875 129.5390625 C-182.22181434 137.55192166 -180.11754318 146.15951895 -178.25 155.875 C-176.05162291 167.26715021 -173.90594463 174.14201649 -164.3125 181.125 C-157.42645523 184.74017351 -148.97389988 184.37066275 -141.375 184.6875 C-139.9199707 184.75227539 -139.9199707 184.75227539 -138.43554688 184.81835938 C-136.06131399 184.92362093 -133.68699079 185.02575707 -131.3125 185.125 C-131.20164062 184.41988281 -131.09078125 183.71476563 -130.9765625 182.98828125 C-128.07001444 170.45592991 -119.67010524 161.13669099 -109.41796875 153.953125 C-95.64728465 145.84660907 -79.99958327 144.14325994 -64.65625 148.015625 C-49.49254409 153.04657416 -39.36891667 162.13961883 -32.0625 176.0625 C-26.35152413 188.02265888 -25.64058968 200.40901924 -29.28125 213.21875 C-33.86575325 226.13871369 -42.40623235 236.36394087 -54.3125 243.125 C-55.3334375 243.70894531 -55.3334375 243.70894531 -56.375 244.3046875 C-64.08944402 248.43312043 -71.54619435 249.49418854 -80.1875 249.4375 C-81.07228027 249.43258545 -81.95706055 249.4276709 -82.86865234 249.42260742 C-89.12557291 249.31007288 -94.55243786 248.71179154 -100.3125 246.125 C-101.12460937 245.79628906 -101.93671875 245.46757812 -102.7734375 245.12890625 C-115.13576845 239.63242372 -125.39372211 228.7624755 -130.3125 216.125 C-130.65994112 214.46121709 -130.99480934 212.794719 -131.3125 211.125 C-132.43724731 211.14856567 -132.43724731 211.14856567 -133.5847168 211.17260742 C-137.05639786 211.23583561 -140.52795713 211.27426565 -144 211.3125 C-145.17884766 211.33763672 -146.35769531 211.36277344 -147.57226562 211.38867188 C-163.20006903 211.51711957 -178.03916415 207.75574055 -189.76171875 196.84765625 C-197.28318815 188.49257311 -202.23223165 179.29477908 -204.375 168.3125 C-204.71372323 166.72371903 -205.05356404 165.1351759 -205.39453125 163.546875 C-205.93347764 160.97693448 -206.45125772 158.40652444 -206.94921875 155.828125 C-208.54100278 148.64988872 -211.70763815 143.91442155 -217.3125 139.125 C-222.71706754 135.75130692 -228.80220143 135.04249781 -235.05078125 134.80859375 C-236.11748047 134.76669922 -237.18417969 134.72480469 -238.28320312 134.68164062 C-239.38599609 134.64232422 -240.48878906 134.60300781 -241.625 134.5625 C-243.30819336 134.49772461 -243.30819336 134.49772461 -245.02539062 134.43164062 C-247.78764569 134.32585213 -250.5499863 134.22376328 -253.3125 134.125 C-253.58404907 135.01251953 -253.58404907 135.01251953 -253.86108398 135.91796875 C-258.08152947 149.21515131 -267.05444681 159.11331845 -279.4375 165.5625 C-292.96906964 171.80253594 -307.33070784 172.60671241 -321.58984375 168.0859375 C-327.9368309 165.60476976 -333.09711055 162.47115788 -338.3125 158.125 C-339.158125 157.5475 -340.00375 156.97 -340.875 156.375 C-347.37732436 150.37285443 -350.73980323 143.16356772 -354.3125 135.125 C-364.2125 134.795 -374.1125 134.465 -384.3125 134.125 C-385.3025 137.095 -386.2925 140.065 -387.3125 143.125 C-395.03192027 156.44142787 -406.36264891 164.63665651 -420.9296875 169.27734375 C-434.77614882 172.74695357 -448.72727327 170.8359825 -461.3125 164.125 C-473.60172228 156.71847543 -481.72763959 146.45040781 -486.421875 132.9296875 C-489.81624941 118.42915823 -487.6109466 103.997411 -480 91.3125 C-471.20183329 78.38382555 -459.19177942 70.84655664 -443.96875 67.7421875 C-439.59028729 67.00308803 -435.71896051 66.61444753 -431.3125 67.125 C-430.39339844 67.21910156 -429.47429687 67.31320313 -428.52734375 67.41015625 C-412.88712553 69.4887917 -401.56862975 76.6931449 -391.328125 88.4375 C-386.732328 94.56522933 -384.56392465 100.61645208 -383.3125 108.125 C-374.0725 108.125 -364.8325 108.125 -355.3125 108.125 C-354.3225 104.825 -353.3325 101.525 -352.3125 98.125 C-346.15310607 84.87957766 -336.1534013 75.63517045 -322.6875 70.3125 C-307.92672635 65.38163811 -293.2649835 66.35331675 -279.1328125 72.64453125 C-274.71200635 74.96514833 -271.03863923 77.82491157 -267.3125 81.125 C-266.70921875 81.60066406 -266.1059375 82.07632813 -265.484375 82.56640625 C-259.0409894 88.12455194 -255.50528313 96.38768399 -252.3125 104.125 C-252.3125 105.445 -252.3125 106.765 -252.3125 108.125 C-248.68665429 108.04294473 -245.06234922 107.93021876 -241.4375 107.8125 C-240.42429688 107.78994141 -239.41109375 107.76738281 -238.3671875 107.74414062 C-228.65997178 107.40189905 -220.13485059 106.07211323 -212.9921875 99.1015625 C-207.40999155 92.53274587 -206.44234586 84.36074532 -204.80712891 76.14990234 C-201.9727024 62.14855159 -195.74208614 50.09746291 -184.3125 41.125 C-181.73529055 39.50146239 -179.08863665 38.06912072 -176.375 36.6875 C-175.73127441 36.35741943 -175.08754883 36.02733887 -174.42431641 35.68725586 C-163.49498105 30.46047964 -151.90544278 30.79120093 -140.0546875 30.7109375 C-138.29777139 30.69219815 -136.54086402 30.67262274 -134.78396606 30.6522522 C-130.19084863 30.60121702 -125.5977021 30.56143934 -121.00445557 30.52410889 C-116.30498224 30.48388849 -111.60562692 30.432879 -106.90625 30.3828125 C-97.70841657 30.28639264 -88.51051607 30.20188071 -79.3125 30.125 C-79.04409805 29.4387001 -78.77569611 28.75240021 -78.49916077 28.04530334 C-77.96602516 26.69462013 -77.96602516 26.69462013 -77.42211914 25.31665039 C-77.07121719 24.42410049 -76.72031525 23.5315506 -76.35877991 22.61195374 C-71.13352839 10.19179859 -60.14569909 1.28828611 -48.015625 -3.90234375 C-31.91903331 -9.69432544 -14.85968776 -8.42788261 0 0 Z M-47.3125 27.125 C-52.68618524 34.67265477 -54.29942093 40.8116427 -53.3125 50.125 C-50.66191923 58.64727092 -45.64776602 63.52384039 -38.1875 68 C-31.98384956 70.31417073 -24.72483119 70.17674592 -18.4609375 68.24609375 C-11.36748274 64.99939165 -7.33262388 60.5592106 -3.4375 53.9375 C-1.46018612 47.23660296 -0.98855302 40.15109351 -4 33.6875 C-7.81127438 27.26012439 -14.07306778 21.76167922 -21.30078125 19.50390625 C-30.70118199 17.73334533 -40.51821544 20.13659303 -47.3125 27.125 Z M-456.3125 104.125 C-460.70418117 110.55215138 -461.34832132 117.52207152 -460.3125 125.125 C-459.35100427 128.09778783 -458.04776085 130.53722423 -456.3125 133.125 C-455.755625 134.011875 -455.19875 134.89875 -454.625 135.8125 C-449.34819753 141.08930247 -442.64203132 144.17617879 -435.1875 144.4375 C-428.59551666 144.36135498 -423.02596103 141.81337575 -417.5 138.375 C-411.13952635 131.83279853 -408.87434852 125.36541932 -408.97265625 116.33203125 C-409.68111174 109.64649153 -412.73735507 104.25004928 -417.625 99.6875 C-430.19078858 90.14830996 -446.08615766 92.51855394 -456.3125 104.125 Z M-323.3125 102.125 C-327.9395857 109.3548214 -330.36755798 115.46371006 -329.3125 124.125 C-326.73539926 132.24166307 -321.75863752 138.05675351 -314.37109375 142.21875 C-308.46927282 144.79409004 -302.11149545 145.22372908 -295.921875 143.43359375 C-289.07902727 140.65223217 -282.26345745 136.11410975 -279.3125 129.125 C-277.36773201 122.21886368 -276.48059389 115.87705561 -279.3125 109.125 C-283.11735303 102.70359639 -288.10410517 97.45350101 -295.16796875 94.66796875 C-305.34618066 92.09097156 -315.9343669 94.54191876 -323.3125 102.125 Z M-100.3125 182.125 C-105.04051092 188.00814995 -106.8177413 193.54638047 -106.3125 201.125 C-104.77147808 208.60852473 -101.72498492 214.7711357 -95.3125 219.125 C-87.39255717 223.09679222 -80.42615014 224.41434987 -71.8125 222.0625 C-65.31501769 219.66101258 -60.2398794 215.31404525 -56.875 209.25 C-53.7593507 202.01724269 -53.81398291 195.82165712 -56.37109375 188.4140625 C-59.38515438 181.08526777 -64.06386035 177.19991704 -71 173.8125 C-82.27257798 171.47290834 -92.73408963 172.86249844 -100.3125 182.125 Z " fill="#EA4B71" transform="translate(487.3125,134.875)"/>
</svg>
