<?xml version="1.0" encoding="UTF-8"?>
<svg version="1.1" xmlns="http://www.w3.org/2000/svg" width="512" height="512">
<path d="M0 0 C1.16479385 -0.00570007 2.32958771 -0.01140015 3.52967834 -0.01727295 C5.99300238 -0.02668063 8.45633877 -0.03324 10.91967773 -0.03710938 C14.59057355 -0.04669333 18.26087873 -0.07770704 21.93164062 -0.109375 C64.49247616 -0.29909508 114.1784287 5.93101122 152.72265625 25.203125 C152.72265625 69.093125 152.72265625 112.983125 152.72265625 158.203125 C148.90274231 157.43914221 146.80029669 156.91814604 143.51953125 155.234375 C142.71708984 154.83250977 141.91464844 154.43064453 141.08789062 154.01660156 C139.79334961 153.36643066 139.79334961 153.36643066 138.47265625 152.703125 C101.24005449 134.53288066 59.05573457 124.80053866 17.72265625 123.203125 C16.7171875 123.161875 15.71171875 123.120625 14.67578125 123.078125 C0.32762823 122.77446039 -15.09680941 124.25024482 -26.62109375 133.5546875 C-31.81954299 138.72861576 -33.44255064 144.71977636 -33.58984375 151.890625 C-33.49425296 160.34606468 -31.55389357 164.89268926 -26.02734375 171.140625 C-9.24695448 186.84731478 16.41942633 192.78397676 37.5914917 200.0826416 C72.25582917 212.03386434 72.25582917 212.03386434 87.72265625 219.203125 C88.66383301 219.63931152 89.60500977 220.07549805 90.57470703 220.52490234 C106.60001291 228.05068691 121.22179795 236.67302957 134.72265625 248.203125 C135.5528125 248.91082031 136.38296875 249.61851562 137.23828125 250.34765625 C162.25204181 272.25387907 177.4313647 302.91044665 179.72265625 336.203125 C181.35448911 374.26465508 176.27540039 410.44435874 153.72265625 442.203125 C153.13355469 443.03585937 152.54445313 443.86859375 151.9375 444.7265625 C137.7508391 463.49660615 119.46921965 477.48993907 98.72265625 488.203125 C98.05540527 488.54972168 97.3881543 488.89631836 96.70068359 489.25341797 C66.22477741 504.86911093 30.62094491 512.25150269 -3.5234375 512.40625 C-4.56435547 512.41326431 -5.60527344 512.42027863 -6.67773438 512.42750549 C-10.02348197 512.44492737 -13.36905244 512.4513591 -16.71484375 512.453125 C-17.85905792 512.45379974 -19.00327209 512.45447449 -20.18215942 512.45516968 C-37.40877881 512.43902448 -54.23642273 511.93707571 -71.27734375 509.203125 C-72.42025879 509.02620117 -73.56317383 508.84927734 -74.74072266 508.66699219 C-97.1691107 505.13193388 -118.8114719 499.8577045 -140.33984375 492.703125 C-141.02509125 492.47582703 -141.71033875 492.24852905 -142.41635132 492.01434326 C-149.92576584 489.50981255 -157.35504016 486.84876305 -164.7109375 483.921875 C-165.35652115 483.66539185 -166.0021048 483.40890869 -166.66725159 483.14465332 C-171.14877917 481.33168958 -171.14877917 481.33168958 -172.27734375 480.203125 C-172.37363972 478.45685976 -172.39921914 476.70666595 -172.39759827 474.95774841 C-172.39897293 473.82046295 -172.4003476 472.68317749 -172.40176392 471.51142883 C-172.39816864 470.25267441 -172.39457336 468.99391998 -172.39086914 467.69702148 C-172.39101517 466.38014343 -172.39116119 465.06326538 -172.39131165 463.70648193 C-172.39159962 460.08474232 -172.38570299 456.46303554 -172.37873769 452.84130359 C-172.37250405 449.06030616 -172.37190034 445.27930805 -172.37071228 441.49830627 C-172.36759899 434.3336821 -172.35938564 427.1690731 -172.34936279 420.00445563 C-172.33820157 411.84981338 -172.33269118 403.69517043 -172.32766736 395.54052246 C-172.31720303 378.76138107 -172.29960364 361.98225497 -172.27734375 345.203125 C-168.10694401 346.55844455 -164.28123233 348.09146889 -160.3671875 350.07421875 C-158.65752808 350.92765869 -158.65752808 350.92765869 -156.91333008 351.79833984 C-156.01102158 352.24895782 -156.01102158 352.24895782 -155.09048462 352.7086792 C-107.5866026 376.31183484 -39.08185555 402.37847426 14.22265625 385.06640625 C23.51895223 381.45497754 28.4065976 377.71161065 32.7421875 368.60546875 C35.68172574 361.4030145 35.84395658 353.50299142 33.28515625 346.140625 C24.2979803 326.55477949 -0.42880087 317.98182379 -19.28735352 310.90600586 C-24.61156881 308.95097128 -29.9529284 307.04455507 -35.29785156 305.14697266 C-141.4678688 267.36157351 -141.4678688 267.36157351 -165.70239258 216.83154297 C-166.57420687 214.96163742 -167.4264984 213.0826646 -168.27734375 211.203125 C-168.68597656 210.33429688 -169.09460938 209.46546875 -169.515625 208.5703125 C-174.88448281 196.34009586 -177.40404201 182.12243039 -177.48046875 168.83984375 C-177.48616882 168.0489888 -177.4918689 167.25813385 -177.4977417 166.4433136 C-177.50714628 164.77171138 -177.5137075 163.10009099 -177.51757812 161.4284668 C-177.52717038 158.93568056 -177.55818868 156.44376121 -177.58984375 153.95117188 C-177.85434967 114.01275754 -162.02341654 77.66266823 -134.27734375 49.203125 C-100.11600536 14.92866959 -47.32745689 0.18476257 0 0 Z " fill="#6671E5" transform="translate(257.27734375,-0.203125)"/>
</svg>
