<?xml version="1.0" standalone="no"?>
<!DOCTYPE svg PUBLIC "-//W3C//DTD SVG 20010904//EN"
 "http://www.w3.org/TR/2001/REC-SVG-20010904/DTD/svg10.dtd">
<svg version="1.0" xmlns="http://www.w3.org/2000/svg"
 width="1875.000000pt" height="834.000000pt" viewBox="0 0 1875.000000 834.000000"
 preserveAspectRatio="xMidYMid meet">

<g transform="translate(0.000000,834.000000) scale(0.100000,-0.100000)"
fill="#000000" stroke="none">
<path d="M0 4170 l0 -4170 1100 0 1100 0 0 4170 0 4170 -1100 0 -1100 0 0
-4170z"/>
<path d="M4820 7369 c-301 -37 -602 -220 -769 -468 -60 -88 -125 -230 -153
-331 -20 -75 -23 -107 -22 -275 0 -178 2 -196 27 -280 117 -382 401 -654 792
-756 78 -20 114 -24 265 -24 193 0 273 13 410 67 206 81 389 247 488 443 82
163 120 401 96 603 l-7 52 -498 0 -499 0 0 -150 0 -150 350 0 350 0 -6 -32
c-14 -74 -58 -187 -96 -246 -190 -292 -650 -382 -976 -190 -77 45 -228 198
-275 278 -101 175 -130 422 -71 620 41 140 145 290 265 384 139 109 279 156
464 156 180 0 309 -43 458 -151 37 -27 71 -49 75 -49 13 0 202 195 202 208 0
19 -151 134 -237 179 -186 97 -419 139 -633 112z"/>
<path d="M6664 6610 c-166 -18 -291 -77 -409 -195 -118 -118 -176 -238 -195
-408 -27 -232 46 -436 214 -595 130 -123 282 -182 476 -182 125 0 216 21 320
71 70 34 101 58 175 133 143 144 198 277 199 481 0 134 -14 205 -63 310 -62
133 -180 254 -314 322 -102 51 -266 77 -403 63z m239 -310 c76 -36 152 -112
189 -188 32 -64 33 -72 33 -187 0 -116 -1 -123 -32 -186 -40 -81 -117 -160
-192 -196 -49 -24 -68 -27 -151 -28 -85 0 -101 3 -155 29 -80 40 -149 111
-188 194 -58 125 -48 300 25 414 48 77 131 141 218 169 14 5 66 7 115 5 69 -2
101 -8 138 -26z"/>
<path d="M9650 6610 c-240 -30 -456 -212 -544 -459 -29 -81 -31 -95 -31 -231
0 -136 2 -150 31 -231 77 -217 268 -395 475 -444 179 -42 379 0 482 100 l37
37 0 -78 c0 -141 -46 -274 -115 -331 -77 -66 -209 -96 -318 -73 -81 16 -170
79 -223 157 -23 33 -43 66 -45 72 -3 7 -56 -11 -139 -45 -74 -31 -136 -57
-138 -59 -6 -5 62 -122 99 -169 88 -111 237 -202 379 -232 90 -19 262 -13 355
12 188 50 335 192 398 380 44 135 47 195 47 895 l0 659 -150 0 -150 0 0 -51 0
-51 -40 35 c-95 87 -249 127 -410 107z m219 -295 c282 -99 342 -540 101 -731
-65 -51 -122 -69 -220 -68 -108 0 -174 29 -249 109 -165 174 -156 446 19 608
35 33 81 64 112 76 64 24 177 27 237 6z"/>
<path d="M11620 6610 c-154 -17 -261 -70 -375 -184 -93 -94 -143 -184 -176
-315 -18 -70 -21 -106 -17 -215 4 -113 8 -143 34 -216 70 -200 232 -358 429
-420 99 -32 275 -38 382 -15 97 21 202 70 272 128 57 48 141 145 141 163 0 6
-52 46 -116 88 l-115 77 -62 -64 c-39 -40 -84 -74 -122 -93 -54 -26 -70 -29
-160 -29 -89 0 -106 4 -156 28 -54 26 -133 99 -158 145 -10 19 -9 23 11 31 82
32 884 365 890 370 4 3 -10 47 -30 96 -125 302 -373 459 -672 425z m227 -304
c45 -22 120 -92 110 -102 -2 -2 -138 -60 -302 -128 l-298 -125 6 58 c12 140
111 263 252 314 68 24 165 17 232 -17z"/>
<path d="M3980 2771 l0 -1681 220 0 220 0 0 675 0 675 353 0 c486 0 608 14
792 91 229 95 458 326 543 545 45 118 62 215 62 362 0 140 -10 212 -42 312
-48 149 -124 269 -253 395 -107 105 -229 184 -353 231 -182 68 -169 67 -889
71 l-653 4 0 -1680z m1332 1227 c103 -34 161 -73 250 -166 75 -80 120 -156
144 -247 18 -66 17 -216 -1 -284 -46 -173 -187 -330 -360 -398 l-70 -28 -427
-3 -428 -3 0 581 0 582 408 -4 c405 -4 407 -4 484 -30z"/>
<path d="M10860 3740 l0 -350 -200 0 -200 0 0 -200 0 -200 200 0 200 0 0 -669
c0 -759 2 -783 70 -929 71 -150 219 -271 390 -318 127 -34 372 -27 525 15 36
10 68 21 71 23 2 3 -26 91 -63 197 -61 171 -70 192 -88 188 -175 -41 -173 -41
-230 -28 -65 15 -141 63 -172 110 -57 85 -57 82 -61 774 l-3 637 281 0 280 0
0 200 0 200 -280 0 -280 0 0 350 0 350 -220 0 -220 0 0 -350z"/>
<path d="M7072 3445 c-227 -41 -412 -135 -560 -284 -66 -67 -129 -148 -121
-155 7 -6 338 -215 359 -226 17 -9 31 1 112 83 77 78 108 101 178 136 114 55
207 74 335 68 141 -8 245 -46 356 -134 134 -105 199 -237 199 -404 l0 -77 -49
23 c-261 127 -720 146 -1023 44 -134 -45 -237 -107 -334 -204 -149 -147 -206
-287 -206 -510 0 -198 58 -359 178 -493 152 -170 350 -266 604 -293 326 -34
599 84 794 344 l36 49 0 -161 0 -161 210 0 210 0 0 783 c0 723 -2 789 -19 872
-36 174 -102 304 -215 423 -142 149 -313 236 -543 277 -109 19 -397 19 -501 0z
m553 -1240 c93 -19 178 -52 253 -97 49 -30 52 -35 52 -73 -1 -151 -98 -334
-243 -456 -256 -215 -606 -227 -807 -29 -82 81 -105 134 -104 245 0 110 20
161 95 240 89 94 201 152 347 180 96 18 294 13 407 -10z"/>
<path d="M9929 3450 c-231 -20 -408 -97 -534 -231 -50 -53 -125 -166 -125
-188 0 -6 -4 -11 -10 -11 -6 0 -10 68 -10 185 l0 185 -210 0 -210 0 0 -1150 0
-1150 220 0 219 0 3 698 3 697 28 78 c73 208 240 363 450 417 90 22 180 27
305 16 l92 -8 0 231 0 231 -34 0 c-18 0 -46 2 -62 4 -16 2 -72 0 -125 -4z"/>
<path d="M13243 3441 c-206 -56 -393 -177 -489 -317 l-39 -56 -3 161 -2 161
-210 0 -210 0 0 -1150 0 -1150 220 0 220 0 0 680 c0 736 1 760 55 893 56 136
181 280 296 337 83 42 160 60 259 60 167 -1 305 -49 396 -140 63 -63 98 -125
126 -227 22 -77 22 -92 26 -840 l3 -763 220 0 219 0 0 744 c0 442 -4 786 -10
847 -40 398 -227 643 -567 745 -77 23 -110 27 -263 30 -150 4 -185 1 -247 -15z"/>
<path d="M15572 3440 c-207 -45 -363 -131 -518 -285 -217 -214 -326 -455 -356
-781 -34 -378 64 -716 283 -972 287 -335 738 -465 1206 -347 204 52 429 190
565 349 59 68 158 212 158 229 0 8 -391 201 -394 195 -110 -191 -257 -321
-426 -379 -48 -16 -96 -23 -186 -27 -139 -5 -242 15 -352 69 -130 64 -264 194
-328 321 -31 61 -70 197 -78 276 l-7 62 900 0 900 0 6 43 c8 51 -10 270 -31
379 -83 438 -360 749 -762 855 -85 22 -122 26 -292 29 -167 3 -208 1 -288 -16z
m394 -391 c277 -49 462 -230 508 -496 l6 -33 -651 0 -651 0 7 33 c13 56 56
156 95 215 49 76 161 179 237 220 122 65 296 89 449 61z"/>
<path d="M18348 3449 c-216 -28 -468 -196 -561 -372 l-32 -62 -3 188 -2 187
-210 0 -210 0 0 -1150 0 -1150 220 0 220 0 0 668 c0 730 1 745 59 868 79 170
225 305 380 355 81 26 273 29 361 5 30 -8 55 -14 56 -13 7 10 124 399 124 410
0 22 -22 32 -110 50 -99 21 -209 27 -292 16z"/>
</g>
</svg>
